<svg width="30" height="33" fill="none" xmlns="http://www.w3.org/2000/svg"><path d="M15.937 32.165.633 24.102.91 5.278l15.304 8.064-.278 18.823Z" fill="#F4F6F5"/><path d="M15.646 32.735.342 24.659 0 24.089.278 5.266l.925-.557 15.304 8.076.341.57-.278 18.823-.924.557ZM1.278 23.722l14.051 7.405.254-17.405L1.532 6.317l-.254 17.405Z" fill="#EBD96B"/><path d="m28.545 27.494-12.608 4.671.279-18.823L28.811 8.67l-.266 18.823Z" fill="#F4F6F5"/><path d="m16.165 32.76-.849-.608.279-18.823.418-.582 12.595-4.671.848.608-.279 18.823-.417.582-12.596 4.671Zm.67-18.975-.253 17.469 11.33-4.203.253-17.469-11.33 4.203Z" fill="#EBD96B"/><path d="m28.81 8.772-12.595 4.684L.898 5.266 13.506.595l15.305 8.177Z" fill="#F4F6F5"/><path d="M16.43 14.038 15.912 14 .595 5.823.67 4.67 13.266 0l.519.038 15.317 8.177-.076 1.152-12.596 4.671ZM2.443 5.38l13.823 7.38L27.279 8.67l-13.823-7.38L2.443 5.38Z" fill="#EBD96B"/></svg>