<svg width="95" height="38" fill="none" xmlns="http://www.w3.org/2000/svg"><path fill="#fff" d="M0 0h94.075v37.867H0z"/><g clip-path="url('#clip0_6055_1755')"><path d="M36.46 0H19.208v17.814h17.254V0Z" fill="#00B2EE"/><path d="M17.254 0H0v17.814h17.254V0Z" fill="#F3D03E"/><path d="M55.668 0H38.414v17.814h17.254V0ZM74.868 0H57.614v17.814h17.254V0ZM94.075 0H76.82v17.814h17.254V0Z" fill="#00B2EE"/><path d="M36.46 20.053H19.208v17.814h17.254V20.053Z" fill="#A4E5FF"/><path d="M17.254 20.053H0v17.814h17.254V20.053Z" fill="#F3D03E"/><path d="M55.668 20.053H38.414v17.814h17.254V20.053ZM74.868 20.053H57.614v17.814h17.254V20.053ZM94.075 20.053H76.82v17.814h17.254V20.053Z" fill="#A4E5FF"/><path d="M25.276 23.924h1.536v8.452h4.377v1.423h-5.913v-9.875ZM49.71 32.154H45.41l-.68 1.645h-1.64l4.215-10.036h.522l4.214 10.036h-1.653l-.68-1.645Zm-2.143-5.444-1.607 4.081h3.2l-1.593-4.08ZM70.668 23.925V33.96h-.523l-5.82-6.846v6.684h-1.536V23.763h.536l5.808 6.819v-6.657h1.535ZM82.094 23.924h2.998c3.13 0 5.2 2.004 5.2 4.918 0 2.913-2.083 4.95-5.2 4.95h-2.998v-9.868Zm2.985 8.452c2.215 0 3.633-1.464 3.633-3.528s-1.405-3.487-3.633-3.487h-1.45v7.015h1.45ZM28.778 14.063h-4.096V4.195h3.345c1.724 0 2.867 1.106 2.867 2.63 0 .763-.274 1.39-.796 1.856 1.117.37 1.783 1.302 1.783 2.509 0 1.66-1.228 2.873-3.097 2.873h-.006Zm-2.594-8.478v2.664h1.692c.941 0 1.477-.526 1.477-1.349s-.536-1.315-1.477-1.315h-1.692Zm2.463 4.02h-2.463v3.062h2.463c1.059 0 1.68-.58 1.68-1.524 0-.945-.622-1.538-1.68-1.538ZM47.547 4.033c2.711-.047 5.083 2.273 5.024 5.1.059 2.826-2.32 5.146-5.024 5.099-2.737.047-5.07-2.273-5.01-5.1-.047-2.825 2.286-5.146 5.01-5.099Zm.013 1.45c-1.986 0-3.43 1.559-3.43 3.636 0 2.078 1.45 3.663 3.43 3.663 1.98 0 3.43-1.558 3.43-3.663 0-2.104-1.477-3.635-3.43-3.635ZM69.04 14.063l-2.319-3.676-2.3 3.676h-1.77l3.228-5.038-3.025-4.83h1.764l2.117 3.487 2.084-3.487h1.75l-2.966 4.83 3.189 5.038H69.04ZM86.961 10.09v3.98h-1.535v-3.98l-3.299-5.895h1.712l2.358 4.29 2.378-4.29h1.692l-3.306 5.896ZM10.962 9.018l-.02-.054h-.012a2.832 2.832 0 0 0-.418-.553c-.392-.418-.438-1.065-.203-1.592.137-.303.216-.6.216-.843 0-.027-.007-.047-.007-.074l1.085-.735-1.523-.35s-.529-.446-.934-.5c-.117-.013-.562 0-.686 0-1.137 0-2.018 1.072-2.018 1.99 0 .108.013.23.032.35.118.702.275 1.201-.157 1.761-.379.492-.757 1.255-.757 1.93 0 .29 1.443 9.989 1.705 12.208.17 1.463-.386 3.156-.53 4.431-.411 3.663-.43 8.398-.359 8.81.072.41 1.02-8.297 1.353-8.857.333-.56.66 8.62.66 8.62s.509-10.833.692-11.467c.183-.634 2.502-7.682 2.574-10.117.039-1.228.137-3.433-.7-4.944l.007-.014Z" fill="#fff"/></g><defs><clipPath id="clip0_6055_1755"><path fill="#fff" d="M0 0h94.075v37.867H0z"/></clipPath></defs></svg>