<svg width="132" height="338" fill="none" xmlns="http://www.w3.org/2000/svg"><path d="m105.275 175.33 25.513-9.953-.207-95.76-25.501 9.954.195 95.759Z" fill="#F4F6F5"/><path d="m105.505 175.806-.804-.476-.207-95.76.345-.475 25.512-9.954.805.476.207 95.76-.345.476-25.513 9.953Zm.15-95.894.195 94.632 24.364-9.498-.196-94.632-24.363 9.498Z" fill="#E6C744"/><path d="m76.305 165.449 28.971 9.881-.195-95.76-28.972-9.88.196 95.759Z" fill="#F4F6F5"/><path d="m105.08 175.816-28.971-9.881-.368-.486-.207-95.76.782-.486 28.971 9.881.368.487.207 95.759-.782.486Zm-28.201-10.729 27.822 9.488-.195-94.653-27.823-9.488.196 94.653Z" fill="#E6C744"/><path d="m76.108 69.772 28.972 9.882 25.513-10.037-28.972-9.88-25.513 10.035Z" fill="#F4F6F5"/><path d="m104.873 80.13-28.972-9.882-.023-.962 25.524-10.036h.437l28.971 9.87.023.963-25.524 10.036h-.436v.01ZM77.625 69.73l27.431 9.354 24.019-9.437-27.432-9.353-24.018 9.436Z" fill="#E6C744"/><path d="m101.878 29.809 15.802-7.491-.287-17.486-15.79 7.5.275 17.477Z" fill="#F4F6F5"/><path d="m102.154 30.274-.839-.455-.276-17.486.31-.466 15.79-7.49.839.455.276 17.486-.31.465-15.79 7.491Zm.034-17.64.265 16.326 14.652-6.953-.264-16.327-14.653 6.953Z" fill="#E6C744"/><path d="m88.88 25.463 12.997 4.346-.276-17.476-12.998-4.356.276 17.486Z" fill="#F4F6F5"/><path d="M101.682 30.296 88.684 25.95l-.379-.476-.276-17.486.77-.497 12.998 4.346.379.476.276 17.486-.77.497Zm-12.228-5.194 11.837 3.962-.264-16.379L89.19 8.722l.264 16.38Z" fill="#E6C744"/><path d="m88.603 8.08 12.998 4.347 15.802-7.595L104.405.486 88.603 8.081Z" fill="#F4F6F5"/><path d="M101.406 12.913 88.409 8.567l-.07-.941L104.143.03l.471-.031 12.997 4.346.069.941-15.801 7.595-.472.03Zm-11.4-4.915 11.561 3.87 14.446-6.943-11.561-3.87-14.446 6.943Z" fill="#E6C744"/><path d="m93.434 252.743 15.79-7.491-.241-114.725-15.79 7.502.24 114.714Z" fill="#F4F6F5"/><path d="m93.708 253.209-.839-.455-.241-114.725.31-.456 15.79-7.491.839.456.242 114.725-.311.455-15.79 7.491Zm.058-114.87.241 113.556 14.641-6.953-.241-113.556-14.641 6.953Z" fill="#E6C744"/><path d="m80.434 248.398 12.997 4.345-.241-114.715-12.998-4.345.242 114.715Z" fill="#F4F6F5"/><path d="m93.235 253.23-12.997-4.346-.38-.486-.24-114.725.77-.487 12.997 4.346.379.486.241 114.725-.77.487Zm-12.227-5.184 11.848 3.963-.241-113.618-11.849-3.963.242 113.618Z" fill="#E6C744"/><path d="m80.191 133.776 12.998 4.346 15.802-7.595-12.998-4.346-15.802 7.595Z" fill="#F4F6F5"/><path d="m92.993 138.608-12.997-4.346-.07-.941 15.802-7.595.472-.031 12.997 4.346.069.941-15.802 7.595-.47.031Zm-11.4-4.915 11.561 3.87 14.446-6.943-11.561-3.87-14.446 6.943Z" fill="#E6C744"/><path d="m93.376 336.795 30.626-14.421.035-86.141-30.627 14.42-.034 86.142Z" fill="#F4F6F5"/><path d="m93.64 337.26-.838-.455.034-86.141.31-.454 30.639-14.42.838.454-.034 86.141-.31.454-30.638 14.421Zm.346-86.286-.035 84.975 29.489-13.884.034-84.975-29.489 13.884Z" fill="#E6C744"/><path d="m79.575 332.057 13.802 4.738.035-86.141-13.814-4.738-.023 86.141Z" fill="#F4F6F5"/><path d="m93.17 337.28-13.802-4.738-.368-.485.034-86.141.782-.485 13.802 4.738.368.485-.035 86.141-.781.485Zm-13.02-5.574 12.652 4.346.035-85.037-12.653-4.345-.035 85.036Z" fill="#E6C744"/><path d="m79.597 246.102 13.813 4.738 30.65-14.607-13.802-4.738-30.661 14.607Z" fill="#F4F6F5"/><path d="m93.204 251.325-13.802-4.738-.069-.939 30.661-14.617.471-.031 13.802 4.738.069.939-30.66 14.617-.472.031Zm-12.216-5.295 12.377 4.252 29.305-13.976-12.377-4.253-29.305 13.977Z" fill="#E6C744"/><path d="m64.522 217.56 15.79-7.473-.242-114.456-15.79 7.474.242 114.455Z" fill="#F4F6F5"/><path d="m64.786 218.015-.839-.454-.24-114.456.31-.455 15.79-7.473.838.454.242 114.456-.31.454-15.79 7.474Zm.07-114.601.24 113.29 14.642-6.937-.242-113.29-14.64 6.937Z" fill="#E6C744"/><path d="m29.816 205.751 34.706 11.809-.24-114.455-34.718-11.81.252 114.456Z" fill="#F4F6F5"/><path d="M64.315 218.046 29.61 206.237l-.368-.485L29 91.296l.782-.486 34.706 11.809.367.486.242 114.455-.782.486ZM30.391 205.39l33.557 11.417-.242-113.351L30.15 92.039l.242 113.351Z" fill="#E6C744"/><path d="m29.561 91.389 34.718 11.809 15.802-7.567-34.706-11.819-15.814 7.577Z" fill="#F4F6F5"/><path d="m64.073 103.683-34.706-11.81-.07-.938L45.1 83.358l.472-.031 34.706 11.809.069.94-15.802 7.576-.471.031Zm-33.12-12.377 33.28 11.324 14.458-6.926L45.41 84.38l-14.457 6.926Z" fill="#E6C744"/><path d="m13.848 175.657 15.79-7.474-.276-17.445-15.79 7.474.276 17.445Z" fill="#F4F6F5"/><path d="m14.113 176.111-.84-.454-.275-17.445.31-.465 15.79-7.473.84.454.275 17.445-.31.464-15.79 7.474Zm.034-17.59.265 16.289 14.652-6.936-.264-16.289-14.653 6.936Z" fill="#E6C744"/><path d="m.851 171.321 12.998 4.336-.276-17.445-12.998-4.336.276 17.445Z" fill="#F4F6F5"/><path d="M13.653 176.142.655 171.807l-.38-.475L0 153.887l.77-.496 12.998 4.336.379.475.276 17.445-.77.495ZM1.425 170.96l11.837 3.954-.264-16.341L1.16 154.62l.264 16.34Z" fill="#E6C744"/><path d="m.576 153.969 12.998 4.346 15.801-7.576-12.997-4.336-15.802 7.566Z" fill="#F4F6F5"/><path d="M13.378 158.79.38 154.454l-.068-.939 15.801-7.577.471-.031 12.998 4.336.069.939-15.802 7.577-.47.031Zm-11.412-4.903 11.562 3.86 14.445-6.926-11.561-3.861-14.446 6.927Z" fill="#E6C744"/><path d="m35.398 230.76 15.79-7.483-.24-114.446-15.803 7.474.253 114.455Z" fill="#F4F6F5"/><path d="m35.662 231.214-.839-.454-.241-114.456.31-.454 15.79-7.473.84.454.24 114.456-.31.454-15.79 7.473Zm.07-114.6.24 113.289 14.642-6.926-.242-113.289-14.64 6.936v-.01Z" fill="#E6C744"/><path d="M22.402 226.414 35.4 230.76l-.253-114.456-12.998-4.335.253 114.445Z" fill="#F4F6F5"/><path d="M35.192 231.235 22.195 226.9l-.38-.486-.24-114.455.77-.486 12.997 4.336.379.485.241 114.456-.77.485Zm-12.227-5.172 11.848 3.954-.241-113.351-11.849-3.954.242 113.351Z" fill="#E6C744"/><path d="m22.148 112.062 12.997 4.335 15.813-7.576-13.009-4.336-15.801 7.577Z" fill="#F4F6F5"/><path d="m34.95 116.882-12.998-4.335-.07-.939 15.802-7.577.472-.031 12.997 4.335.07.94-15.803 7.577-.47.03Zm-11.4-4.903 11.56 3.861 14.446-6.926-11.561-3.861-14.446 6.926Z" fill="#E6C744"/></svg>