<svg width="36" height="36" fill="none" xmlns="http://www.w3.org/2000/svg"><rect width="35.107" height="35.107" rx="10.127" fill="#525146"/><path d="M14.093 14.49v8.56h-2.286v-8.56h2.286Zm-2.429-2.231c0-.332.116-.607.348-.823.232-.216.543-.324.934-.324.385 0 .694.108.925.324.238.216.357.49.357.823 0 .332-.12.607-.357.823-.232.216-.54.324-.925.324-.39 0-.702-.108-.934-.324a1.076 1.076 0 0 1-.348-.823Zm6.867 4.059v6.733h-2.278v-8.56h2.136l.142 1.827ZM18.2 18.47h-.617c0-.633.082-1.203.245-1.71.164-.51.393-.946.688-1.305.296-.364.647-.64 1.053-.83.411-.195.87-.293 1.376-.293.401 0 .768.058 1.1.174.332.116.617.3.855.554.242.253.427.588.553 1.005.132.416.198.925.198 1.527v5.459h-2.294v-5.467c0-.38-.053-.675-.158-.886a.889.889 0 0 0-.467-.444c-.2-.09-.449-.134-.744-.134-.306 0-.572.06-.799.182-.222.121-.406.29-.554.506-.142.211-.25.46-.324.744-.074.285-.111.59-.111.918Z" fill="#000"/></svg>