<svg width="95" height="38" viewBox="0 0 95 38" fill="none" xmlns="http://www.w3.org/2000/svg">
<rect width="94.0751" height="37.8667" fill="white"/>
<g clip-path="url(#clip0_6055_1755)">
<path d="M36.4607 0H19.207V17.8137H36.4607V0Z" fill="#00B2EE"/>
<path d="M17.2536 0H0V17.8137H17.2536V0Z" fill="#F3D03E"/>
<path d="M55.6677 0H38.4141V17.8137H55.6677V0Z" fill="#00B2EE"/>
<path d="M74.8679 0H57.6143V17.8137H74.8679V0Z" fill="#00B2EE"/>
<path d="M94.0749 0H76.8213V17.8137H94.0749V0Z" fill="#00B2EE"/>
<path d="M36.4607 20.0532H19.207V37.8669H36.4607V20.0532Z" fill="#A4E5FF"/>
<path d="M17.2536 20.0532H0V37.8669H17.2536V20.0532Z" fill="#F3D03E"/>
<path d="M55.6677 20.0532H38.4141V37.8669H55.6677V20.0532Z" fill="#A4E5FF"/>
<path d="M74.8679 20.0532H57.6143V37.8669H74.8679V20.0532Z" fill="#A4E5FF"/>
<path d="M94.0749 20.0532H76.8213V37.8669H94.0749V20.0532Z" fill="#A4E5FF"/>
<path d="M25.2764 23.9243H26.8116V32.3759H31.1887V33.7991H25.2764V23.9311V23.9243Z" fill="white"/>
<path d="M49.7097 32.1535H45.411L44.7316 33.7993H43.0918L47.3056 23.7627H47.8282L52.042 33.7993H50.3891L49.7097 32.1535ZM47.5669 26.7103L45.9598 30.791H49.1609L47.5669 26.7103Z" fill="white"/>
<path d="M70.6678 23.9246V33.9612H70.1452L64.3243 27.115V33.7993H62.7891V23.7627H63.3248L69.1326 30.5819V23.9246H70.6678Z" fill="white"/>
<path d="M82.0938 23.9243H85.0924C88.2217 23.9243 90.2927 25.9276 90.2927 28.8415C90.2927 31.7553 88.2086 33.7923 85.0924 33.7923H82.0938V23.9243ZM85.0793 32.3759C87.294 32.3759 88.7117 30.9122 88.7117 28.8482C88.7117 26.7842 87.3071 25.361 85.0793 25.361H83.629V32.3759H85.0793Z" fill="white"/>
<path d="M28.7778 14.0633H24.6816V4.19531H28.0265C29.7512 4.19531 30.8945 5.3015 30.8945 6.82588C30.8945 7.58807 30.6201 8.21536 30.0975 8.68077C31.2146 9.05174 31.881 9.98256 31.881 11.1899C31.881 12.8492 30.6528 14.0633 28.7844 14.0633H28.7778ZM26.1842 5.58479V8.24908H27.8763C28.817 8.24908 29.3527 7.72297 29.3527 6.90008C29.3527 6.07718 28.817 5.58479 27.8763 5.58479H26.1842ZM28.6472 9.60484H26.1842V12.6671H28.6472C29.7055 12.6671 30.3261 12.087 30.3261 11.1427C30.3261 10.1984 29.7055 9.60484 28.6472 9.60484Z" fill="white"/>
<path d="M47.547 4.03342C50.2582 3.98621 52.6297 6.3065 52.5709 9.13268C52.6297 11.9589 50.2517 14.2791 47.547 14.2319C44.8097 14.2791 42.4774 11.9589 42.5362 9.13268C42.4905 6.3065 44.8228 3.98621 47.547 4.03342ZM47.5601 5.48361C45.5741 5.48361 44.1303 7.04171 44.1303 9.11919C44.1303 11.1967 45.5806 12.7817 47.5601 12.7817C49.5396 12.7817 50.9899 11.2236 50.9899 9.11919C50.9899 7.01473 49.5135 5.48361 47.5601 5.48361Z" fill="white"/>
<path d="M69.0406 14.0633L66.7214 10.3873L64.4218 14.0633H62.6514L65.8787 9.02476L62.8539 4.19531H64.6178L66.7345 7.6825L68.8185 4.19531H70.5693L67.6034 9.02476L70.7915 14.0633H69.0406Z" fill="white"/>
<path d="M86.9614 10.0905V14.0701H85.4261V10.0905L82.127 4.19531H83.8386L86.197 8.48516L88.575 4.19531H90.2671L86.9614 10.0905Z" fill="white"/>
<path d="M10.9624 9.01833L10.9428 8.96437H10.9297C10.8121 8.76202 10.6749 8.5799 10.5116 8.41127C10.1196 7.99308 10.0739 7.34556 10.3091 6.81944C10.4462 6.51592 10.5246 6.21913 10.5246 5.97631C10.5246 5.94933 10.5181 5.9291 10.5181 5.90212L11.6026 5.16691L10.0804 4.81616C10.0804 4.81616 9.55123 4.37099 9.14618 4.31703C9.02859 4.30354 8.58434 4.31703 8.46022 4.31703C7.32348 4.31703 6.44152 5.38949 6.44152 6.30682C6.44152 6.41474 6.45459 6.53615 6.47419 6.65756C6.59178 7.35905 6.74857 7.85818 6.3174 8.41802C5.93848 8.91041 5.55957 9.6726 5.55957 10.3471C5.55957 10.6371 7.00336 20.3365 7.26468 22.5556C7.43454 24.0193 6.87923 25.7123 6.73551 26.9871C6.32393 30.6497 6.30433 35.3847 6.37619 35.7962C6.44806 36.2076 7.39534 27.4998 7.72852 26.9399C8.06171 26.3801 8.38835 35.5601 8.38835 35.5601C8.38835 35.5601 8.89793 24.7275 9.08085 24.0935C9.26378 23.4595 11.583 16.4109 11.6549 13.9759C11.694 12.7483 11.792 10.5427 10.9558 9.03182L10.9624 9.01833Z" fill="white"/>
</g>
<defs>
<clipPath id="clip0_6055_1755">
<rect width="94.0751" height="37.8667" fill="white"/>
</clipPath>
</defs>
</svg>
