<svg width="30" height="33" viewBox="0 0 30 33" fill="none" xmlns="http://www.w3.org/2000/svg">
<path d="M15.937 32.1651L0.632812 24.1017L0.911301 5.27844L16.2154 13.3419L15.937 32.1651Z" fill="#F4F6F5"/>
<path d="M15.6459 32.7348L0.341766 24.6587L0 24.0891L0.278489 5.26584L1.20256 4.70886L16.5067 12.785L16.8485 13.3546L16.57 32.1778L15.6459 32.7348ZM1.2785 23.722L15.3295 31.1272L15.5826 13.7217L1.53167 6.3165L1.2785 23.722Z" fill="#EBD96B"/>
<path d="M28.5454 27.4941L15.9375 32.1651L16.216 13.3419L28.8112 8.6709L28.5454 27.4941Z" fill="#F4F6F5"/>
<path d="M16.1645 32.76L15.3164 32.1524L15.5949 13.3292L16.0126 12.7469L28.6079 8.07593L29.456 8.68353L29.1775 27.5068L28.7598 28.089L16.1645 32.76ZM16.8354 13.7849L16.5823 31.2537L27.9116 27.0511L28.1648 9.58229L16.8354 13.7849Z" fill="#EBD96B"/>
<path d="M28.8105 8.77226L16.2153 13.4559L0.898438 5.26585L13.5063 0.594849L28.8105 8.77226Z" fill="#F4F6F5"/>
<path d="M16.4305 14.0383L15.9115 14.0003L0.594727 5.82293L0.670675 4.671L13.2659 0L13.7849 0.037974L29.1017 8.21539L29.0257 9.36732L16.4305 14.0383ZM2.44286 5.37987L16.266 12.7598L27.2789 8.67109L13.4558 1.29117L2.44286 5.37987Z" fill="#EBD96B"/>
</svg>
