<svg width="599" height="863" viewBox="0 0 599 863" fill="none" xmlns="http://www.w3.org/2000/svg">
<path d="M388.343 477.138L460.481 445.878L459.896 145.142L387.791 176.402L388.343 477.138Z" fill="#F4F6F5"/>
<path d="M388.994 478.633L386.719 477.138L386.134 176.402L387.109 174.907L459.247 143.647L461.522 145.142L462.106 445.878L461.132 447.373L388.994 478.633ZM389.416 177.474L389.969 474.669L458.857 444.839L458.305 147.644L389.416 177.474Z" fill="#E6C744"/>
<path d="M306.426 446.105L388.345 477.137L387.793 176.401L305.874 145.369L306.426 446.105Z" fill="#F4F6F5"/>
<path d="M387.792 478.665L305.873 447.633L304.833 446.105L304.249 145.369L306.458 143.842L388.377 174.874L389.417 176.401L390.002 477.138L387.792 478.665ZM308.05 444.968L386.72 474.765L386.167 177.506L307.498 147.708L308.05 444.968Z" fill="#E6C744"/>
<path d="M305.873 145.629L387.791 176.661L459.929 145.142L378.01 114.109L305.873 145.629Z" fill="#F4F6F5"/>
<path d="M387.205 178.156L305.287 147.124L305.222 144.102L377.392 112.582H378.627L460.546 143.582L460.61 146.604L388.44 178.124H387.205V178.156ZM310.161 145.499L387.725 174.874L455.639 145.239L378.074 115.864L310.161 145.499Z" fill="#E6C744"/>
<path d="M262.491 557.756L307.138 534.23L306.456 173.931L261.809 197.457L262.491 557.756Z" fill="#F4F6F5"/>
<path d="M263.239 559.186L260.867 557.756L260.184 197.457L261.061 196.027L305.709 172.501L308.081 173.931L308.763 534.23L307.886 535.66L263.239 559.186ZM263.434 198.432L264.116 555.059L305.514 533.223L304.831 176.595L263.434 198.432Z" fill="#E6C744"/>
<path d="M164.36 520.582L262.493 557.756L261.81 197.457L163.645 160.283L164.36 520.582Z" fill="#F4F6F5"/>
<path d="M261.907 559.283L163.774 522.11L162.734 520.582L162.051 160.283L164.261 158.756L262.394 195.93L263.434 197.457L264.117 557.756L261.907 559.283ZM165.983 519.445L260.867 555.384L260.185 198.562L165.301 162.623L165.983 519.445Z" fill="#E6C744"/>
<path d="M163.64 160.576L261.806 197.75L306.486 173.931L208.352 136.725L163.64 160.576Z" fill="#F4F6F5"/>
<path d="M261.223 199.277L163.089 162.103L162.895 159.146L207.574 135.295L208.907 135.198L307.04 172.371L307.235 175.328L262.555 199.179L261.223 199.277ZM167.574 160.316L261.678 195.962L302.556 174.159L208.452 138.512L167.574 160.316Z" fill="#E6C744"/>
<path d="M427.691 675.581L514.289 630.186L514.386 359.019L427.788 404.414L427.691 675.581Z" fill="#F4F6F5"/>
<path d="M428.438 677.043L426.065 675.613L426.163 404.447L427.04 403.017L513.671 357.622L516.043 359.052L515.945 630.219L515.068 631.648L428.438 677.043ZM429.412 405.422L429.315 672.916L512.696 629.211L512.793 361.717L429.412 405.422Z" fill="#E6C744"/>
<path d="M388.666 660.666L427.692 675.581L427.79 404.414L388.731 389.5L388.666 660.666Z" fill="#F4F6F5"/>
<path d="M427.106 677.108L388.08 662.193L387.041 660.666L387.138 389.5L389.348 387.972L428.374 402.887L429.413 404.415L429.316 675.581L427.106 677.108ZM390.29 659.561L426.066 673.242L426.164 405.552L390.388 391.872L390.29 659.561Z" fill="#E6C744"/>
<path d="M388.732 390.084L427.791 404.999L514.454 359.019L475.428 344.104L388.732 390.084Z" fill="#F4F6F5"/>
<path d="M427.205 406.527L388.179 391.612L387.984 388.655L474.679 342.643L476.011 342.545L515.037 357.46L515.232 360.417L428.537 406.429L427.205 406.527ZM392.663 389.857L427.66 403.245L510.521 359.247L475.524 345.86L392.663 389.857Z" fill="#E6C744"/>
<path d="M344.28 662.681L388.928 639.155L388.245 278.856L343.598 302.414L344.28 662.681Z" fill="#F4F6F5"/>
<path d="M345.058 664.143L342.686 662.713L342.004 302.414L342.881 300.985L387.529 277.459L389.901 278.889L390.583 639.187L389.706 640.617L345.058 664.143ZM345.221 303.389L345.903 660.016L387.301 638.18L386.619 281.553L345.221 303.389Z" fill="#E6C744"/>
<path d="M307.527 649.033L344.278 662.681L343.596 302.414L306.844 288.767L307.527 649.033Z" fill="#F4F6F5"/>
<path d="M343.725 664.208L306.974 650.56L305.902 649.033L305.219 288.734L307.397 287.207L344.148 300.855L345.22 302.382L345.902 662.681L343.725 664.208ZM309.151 647.928L342.653 660.374L341.971 303.552L308.469 291.106L309.151 647.928Z" fill="#E6C744"/>
<path d="M306.843 289.059L343.595 302.707L388.274 278.856L351.523 265.208L306.843 289.059Z" fill="#F4F6F5"/>
<path d="M343.041 304.234L306.29 290.586L306.095 287.629L350.775 263.778L352.107 263.681L388.859 277.328L389.054 280.285L344.374 304.136L343.041 304.234ZM310.807 288.799L343.496 300.952L384.342 279.148L351.653 266.995L310.807 288.799Z" fill="#E6C744"/>
<path d="M552.476 834.772L597.124 811.246L596.441 450.947L551.761 474.473L552.476 834.772Z" fill="#F4F6F5"/>
<path d="M553.222 836.202L550.85 834.772L550.168 474.473L551.045 473.043L595.693 449.517L598.065 450.947L598.747 811.246L597.87 812.676L553.222 836.202ZM553.417 475.448L554.1 832.075L595.498 810.239L594.815 453.612L553.417 475.415V475.448Z" fill="#E6C744"/>
<path d="M515.722 821.124L552.474 834.772L551.759 474.473L515.007 460.825L515.722 821.124Z" fill="#F4F6F5"/>
<path d="M551.888 836.299L515.137 822.652L514.065 821.124L513.382 460.825L515.56 459.298L552.311 472.946L553.383 474.473L554.065 834.772L551.888 836.299ZM517.314 819.987L550.816 832.432L550.134 475.61L516.632 463.165L517.314 819.987Z" fill="#E6C744"/>
<path d="M515.008 461.117L551.759 474.798L596.472 450.947L559.72 437.299L515.008 461.117Z" fill="#F4F6F5"/>
<path d="M551.206 476.293L514.455 462.645L514.26 459.688L558.94 435.837L560.272 435.74L597.023 449.387L597.218 452.344L552.538 476.195L551.206 476.293ZM518.972 460.858L551.661 473.011L592.507 451.207L559.817 439.054L518.972 460.858Z" fill="#E6C744"/>
<path d="M262.395 815.86L307.075 792.302L306.36 432.035L261.712 455.561L262.395 815.86Z" fill="#F4F6F5"/>
<path d="M263.173 817.29L260.801 815.86L260.119 455.561L260.996 454.131L305.643 430.605L308.016 432.035L308.698 792.334L307.821 793.764L263.173 817.29ZM263.336 456.536L264.018 813.163L305.416 791.327L304.734 434.7L263.336 456.536Z" fill="#E6C744"/>
<path d="M225.642 802.213L262.393 815.86L261.711 455.561L224.959 441.914L225.642 802.213Z" fill="#F4F6F5"/>
<path d="M261.841 817.388L225.09 803.74L224.018 802.213L223.335 441.914L225.513 440.386L262.264 454.034L263.336 455.561L264.018 815.86L261.841 817.388ZM227.267 801.075L260.769 813.521L260.087 456.699L226.585 444.253L227.267 801.075Z" fill="#E6C744"/>
<path d="M224.959 442.206L261.71 455.854L306.39 432.003L269.639 418.355L224.959 442.206Z" fill="#F4F6F5"/>
<path d="M261.157 457.381L224.406 443.734L224.211 440.777L268.891 416.926L270.223 416.828L306.975 430.476L307.169 433.433L262.49 457.284L261.157 457.381ZM228.923 441.946L261.612 454.099L302.458 432.295L269.768 420.143L228.923 441.946Z" fill="#E6C744"/>
<path d="M39.0929 861.06L83.7403 837.501L83.0579 477.235L38.3779 500.761L39.0929 861.06Z" fill="#F4F6F5"/>
<path d="M39.8392 862.49L37.4671 861.06L36.7847 500.761L37.6621 499.331L82.3095 475.805L84.6815 477.235L85.364 837.534L84.4866 838.964L39.8392 862.49ZM40.0341 501.736L40.7166 858.363L82.1145 836.559L81.4321 479.932L40.0341 501.768V501.736Z" fill="#E6C744"/>
<path d="M2.34096 847.38L39.0922 861.06L38.3772 500.761L1.62598 487.114L2.34096 847.38Z" fill="#F4F6F5"/>
<path d="M38.5061 862.555L1.75483 848.907L0.682456 847.38L0 487.081L2.17708 485.554L38.9285 499.201L40.0007 500.729L40.6832 861.028L38.5061 862.555ZM3.93191 846.275L37.4337 858.72L36.7513 501.898L3.24945 489.453L3.93191 846.275Z" fill="#E6C744"/>
<path d="M1.62598 487.406L38.3772 501.054L83.0897 477.203L46.3059 463.555L1.62598 487.406Z" fill="#F4F6F5"/>
<path d="M37.8222 502.581L1.07094 488.933L0.875977 485.976L45.5559 462.125L46.8881 462.028L83.6394 475.676L83.8343 478.633L39.1544 502.484L37.8222 502.581ZM5.58772 487.146L38.2772 499.299L79.1228 477.495L46.4333 465.342L5.58772 487.146Z" fill="#E6C744"/>
<path d="M182.684 754.965L227.332 731.439L226.649 371.14L182.002 394.666L182.684 754.965Z" fill="#F4F6F5"/>
<path d="M183.431 756.394L181.059 754.965L180.377 394.666L181.254 393.236L225.902 369.71L228.274 371.14L228.956 731.439L228.079 732.868L183.431 756.394ZM183.626 395.673L184.309 752.3L225.707 730.496L225.024 373.869L183.626 395.706V395.673Z" fill="#E6C744"/>
<path d="M84.5501 717.791L182.684 754.965L182.001 394.666L83.8677 357.492L84.5501 717.791Z" fill="#F4F6F5"/>
<path d="M182.098 756.492L83.965 719.318L82.9251 717.791L82.2427 357.492L84.4523 355.965L182.586 393.139L183.626 394.666L184.308 754.965L182.098 756.492ZM86.1746 716.654L181.059 752.593L180.376 395.771L85.4921 359.832L86.1746 716.654Z" fill="#E6C744"/>
<path d="M83.8667 357.784L182 394.991L226.68 371.14L128.547 333.966L83.8667 357.784Z" fill="#F4F6F5"/>
<path d="M181.414 396.518L83.2809 359.344L83.0859 356.387L127.766 332.536L129.098 332.439L227.231 369.613L227.426 372.57L182.747 396.421L181.414 396.518ZM87.7652 357.557L181.869 393.204L222.747 371.4L128.643 335.753L87.7652 357.557Z" fill="#E6C744"/>
<path d="M283.777 93.6165L328.457 70.0905L327.645 15.1748L282.998 38.7333L283.777 93.6165Z" fill="#F4F6F5"/>
<path d="M284.556 95.0789L282.184 93.6491L281.404 38.7333L282.282 37.2712L326.929 13.7451L329.301 15.1749L330.081 70.0906L329.204 71.5528L284.556 95.0789ZM284.654 39.6757L285.401 90.952L326.832 69.1157L326.084 17.8394L284.654 39.6757Z" fill="#E6C744"/>
<path d="M247.025 79.9689L283.776 93.6166L282.996 38.7334L246.245 25.0532L247.025 79.9689Z" fill="#F4F6F5"/>
<path d="M283.224 95.144L246.473 81.4963L245.4 80.0016L244.621 25.0859L246.798 23.5261L283.549 37.1739L284.621 38.6686L285.401 93.5842L283.224 95.144ZM248.65 78.8318L282.119 91.2772L281.372 39.8384L247.903 27.393L248.65 78.8318Z" fill="#E6C744"/>
<path d="M246.245 25.378L282.996 39.0258L327.676 15.1748L290.925 1.5271L246.245 25.378Z" fill="#F4F6F5"/>
<path d="M282.443 40.5531L245.692 26.9054L245.497 23.9484L290.177 0.0974795L291.509 0L328.26 13.6477L328.455 16.6047L283.775 40.4556L282.443 40.5531ZM250.208 25.1182L282.898 37.2712L323.743 15.4674L291.054 3.3144L250.208 25.1182Z" fill="#E6C744"/>
</svg>
