<svg width="272" height="451" viewBox="0 0 272 451" fill="none" xmlns="http://www.w3.org/2000/svg">
<path d="M185.369 308.719L230.291 291.192L229.927 122.581L185.025 140.107L185.369 308.719Z" fill="#F4F6F5"/>
<path d="M185.774 309.556L184.357 308.718L183.993 140.107L184.6 139.269L229.522 121.743L230.939 122.581L231.303 291.192L230.696 292.03L185.774 309.556ZM186.037 140.708L186.381 307.334L229.279 290.609L228.935 123.984L186.037 140.708Z" fill="#E6C744"/>
<path d="M134.357 291.319L185.369 308.718L185.025 140.106L134.013 122.708L134.357 291.319Z" fill="#F4F6F5"/>
<path d="M185.025 309.574L134.012 292.176L133.364 291.319L133 122.708L134.376 121.852L185.389 139.25L186.036 140.106L186.4 308.718L185.025 309.574ZM135.367 290.682L184.357 307.388L184.013 140.726L135.024 124.02L135.367 290.682Z" fill="#E6C744"/>
<path d="M134.012 122.854L185.024 140.253L229.946 122.581L178.934 105.182L134.012 122.854Z" fill="#F4F6F5"/>
<path d="M184.659 141.091L133.646 123.692L133.605 121.998L178.548 104.326H179.317L230.329 121.706L230.37 123.401L185.428 141.072H184.659V141.091ZM136.681 122.781L184.982 139.251L227.274 122.635L178.973 106.166L136.681 122.781Z" fill="#E6C744"/>
<path d="M179.384 52.4871L207.207 39.297L206.701 8.50781L178.898 21.7161L179.384 52.4871Z" fill="#F4F6F5"/>
<path d="M179.869 53.3071L178.392 52.5054L177.906 21.7163L178.453 20.8965L206.256 7.7063L207.733 8.50791L208.218 39.2971L207.672 40.1169L179.869 53.3071ZM179.93 22.2446L180.395 50.9933L206.195 38.7505L205.73 10.0018L179.93 22.2446Z" fill="#E6C744"/>
<path d="M156.497 44.8353L179.383 52.487L178.898 21.7161L156.012 14.0461L156.497 44.8353Z" fill="#F4F6F5"/>
<path d="M179.039 53.3436L156.153 45.6919L155.486 44.8538L155 14.0647L156.356 13.1902L179.242 20.8419L179.909 21.68L180.395 52.4691L179.039 53.3436ZM157.509 44.198L178.351 51.1756L177.886 22.3359L157.044 15.3582L157.509 44.198Z" fill="#E6C744"/>
<path d="M156.012 14.2285L178.898 21.8803L206.721 8.50794L183.835 0.856201L156.012 14.2285Z" fill="#F4F6F5"/>
<path d="M178.554 22.7366L155.668 15.0849L155.547 13.427L183.37 0.0546531L184.2 0L207.086 7.65174L207.207 9.30962L179.384 22.6819L178.554 22.7366ZM158.481 14.0828L178.838 20.8965L204.273 8.67196L183.917 1.85826L158.481 14.0828Z" fill="#E6C744"/>
<path d="M164.516 445.025L192.319 431.835L191.894 229.829L164.091 243.038L164.516 445.025Z" fill="#F4F6F5"/>
<path d="M165 445.845L163.523 445.044L163.098 243.038L163.644 242.236L191.447 229.046L192.924 229.848L193.349 431.854L192.803 432.655L165 445.845ZM165.101 243.584L165.526 443.532L191.305 431.289L190.881 231.342L165.101 243.584Z" fill="#E6C744"/>
<path d="M141.628 437.374L164.514 445.025L164.089 243.038L141.203 235.386L141.628 437.374Z" fill="#F4F6F5"/>
<path d="M164.169 445.882L141.283 438.23L140.615 437.374L140.19 235.368L141.546 234.512L164.432 242.163L165.1 243.02L165.525 445.026L164.169 445.882ZM142.639 436.755L163.501 443.732L163.076 243.676L142.214 236.698L142.639 436.755Z" fill="#E6C744"/>
<path d="M141.201 235.55L164.087 243.202L191.91 229.829L169.024 222.178L141.201 235.55Z" fill="#F4F6F5"/>
<path d="M163.743 244.058L140.857 236.406L140.735 234.749L168.559 221.376L169.388 221.322L192.274 228.973L192.396 230.631L164.572 244.003L163.743 244.058ZM143.669 235.404L164.026 242.218L189.462 229.993L169.105 223.18L143.669 235.404Z" fill="#E6C744"/>
<path d="M216.489 449.905L270.416 424.514L270.477 272.838L216.55 298.23L216.489 449.905Z" fill="#F4F6F5"/>
<path d="M216.955 450.724L215.478 449.924L215.538 298.248L216.085 297.449L270.031 272.057L271.509 272.857L271.448 424.533L270.902 425.332L216.955 450.724ZM217.562 298.794L217.501 448.416L269.424 423.969L269.485 274.347L217.562 298.794Z" fill="#E6C744"/>
<path d="M192.188 441.563L216.491 449.906L216.552 298.23L192.229 289.887L192.188 441.563Z" fill="#F4F6F5"/>
<path d="M216.126 450.76L191.823 442.418L191.176 441.563L191.237 289.887L192.613 289.033L216.915 297.376L217.562 298.23L217.502 449.906L216.126 450.76ZM193.199 440.945L215.478 448.597L215.539 298.866L193.26 291.214L193.199 440.945Z" fill="#E6C744"/>
<path d="M192.229 290.214L216.552 298.557L270.519 272.838L246.217 264.496L192.229 290.214Z" fill="#F4F6F5"/>
<path d="M216.187 299.411L191.885 291.069L191.764 289.415L245.751 263.678L246.581 263.624L270.883 271.966L271.004 273.62L217.017 299.357L216.187 299.411ZM194.678 290.087L216.471 297.576L268.07 272.966L246.277 265.477L194.678 290.087Z" fill="#E6C744"/>
<path d="M113.61 383.076L141.413 369.917L140.988 168.385L113.185 181.544L113.61 383.076Z" fill="#F4F6F5"/>
<path d="M114.075 383.876L112.598 383.076L112.173 181.544L112.719 180.745L140.522 167.585L141.999 168.385L142.424 369.917L141.878 370.717L114.075 383.876ZM114.196 182.09L114.621 381.567L140.401 369.353L139.976 169.876L114.196 182.09Z" fill="#E6C744"/>
<path d="M52.5009 362.283L113.611 383.076L113.186 181.544L52.0557 160.751L52.5009 362.283Z" fill="#F4F6F5"/>
<path d="M113.246 383.93L52.136 363.137L51.4885 362.283L51.0635 160.751L52.4394 159.897L113.549 180.69L114.197 181.544L114.622 383.076L113.246 383.93ZM53.512 361.647L112.599 381.749L112.174 182.162L53.087 162.06L53.512 361.647Z" fill="#E6C744"/>
<path d="M52.0527 160.915L113.183 181.708L141.006 168.385L79.8963 147.574L52.0527 160.915Z" fill="#F4F6F5"/>
<path d="M112.82 182.562L51.7103 161.769L51.5889 160.115L79.4121 146.774L80.2418 146.72L141.352 167.513L141.473 169.167L113.65 182.508L112.82 182.562ZM54.5027 160.77L113.104 180.708L138.559 168.513L79.9585 148.574L54.5027 160.77Z" fill="#E6C744"/>
<path d="M24.3831 309.293L52.1861 296.134L51.7005 265.417L23.8975 278.576L24.3831 309.293Z" fill="#F4F6F5"/>
<path d="M24.8486 310.093L23.3714 309.293L22.8857 278.576L23.4321 277.759L51.2351 264.599L52.7123 265.399L53.1979 296.116L52.6516 296.934L24.8486 310.093ZM24.9093 279.122L25.3746 307.803L51.1744 295.589L50.709 266.908L24.9093 279.122Z" fill="#E6C744"/>
<path d="M1.49832 301.659L24.3842 309.293L23.8986 278.576L1.0127 270.943L1.49832 301.659Z" fill="#F4F6F5"/>
<path d="M24.0393 310.148L1.15342 302.514L0.485623 301.678L0 270.961L1.35572 270.089L24.2416 277.722L24.9094 278.558L25.395 309.275L24.0393 310.148ZM2.50913 301.024L23.3513 307.985L22.8859 279.213L2.04377 272.252L2.50913 301.024Z" fill="#E6C744"/>
<path d="M1.01465 271.106L23.9005 278.758L51.7238 265.417L28.8379 257.784L1.01465 271.106Z" fill="#F4F6F5"/>
<path d="M23.5556 279.594L0.669746 271.961L0.54834 270.307L28.3716 256.966L29.2012 256.911L52.0871 264.545L52.2085 266.199L24.3852 279.54L23.5556 279.594ZM3.4622 270.961L23.8187 277.759L49.2543 265.563L28.8977 258.765L3.4622 270.961Z" fill="#E6C744"/>
<path d="M62.331 416.343L90.134 403.165L89.709 201.652L61.8857 214.811L62.331 416.343Z" fill="#F4F6F5"/>
<path d="M62.7957 417.142L61.3185 416.343L60.8936 214.811L61.4399 214.011L89.243 200.852L90.7201 201.652L91.1451 403.184L90.5987 403.983L62.7957 417.142ZM62.9171 215.356L63.342 414.834L89.1216 402.638L88.6966 203.16L62.9171 215.374V215.356Z" fill="#E6C744"/>
<path d="M39.4452 408.691L62.3311 416.343L61.8859 214.811L39 207.177L39.4452 408.691Z" fill="#F4F6F5"/>
<path d="M61.966 417.179L39.0801 409.545L38.4123 408.691L37.9873 207.159L39.343 206.305L62.229 213.939L62.8967 214.793L63.3217 416.325L61.966 417.179ZM40.4358 408.073L61.2982 415.034L60.8732 215.447L40.0108 208.486L40.4358 408.073Z" fill="#E6C744"/>
<path d="M38.999 207.341L61.8849 214.975L89.7284 201.634L66.8223 194L38.999 207.341Z" fill="#F4F6F5"/>
<path d="M61.5395 215.829L38.6536 208.195L38.5322 206.542L66.3555 193.201L67.1851 193.146L90.071 200.78L90.1924 202.434L62.3691 215.775L61.5395 215.829ZM41.4663 207.196L61.8229 213.993L87.2584 201.798L66.9019 195L41.4663 207.196Z" fill="#E6C744"/>
</svg>
