<svg width="452" height="651" viewBox="0 0 452 651" fill="none" xmlns="http://www.w3.org/2000/svg">
<path d="M293.242 359.968L347.621 336.404L347.18 109.702L292.825 133.266L293.242 359.968Z" fill="#F4F6F5"/>
<path d="M293.732 361.095L292.018 359.968L291.577 133.266L292.311 132.139L346.691 108.575L348.405 109.702L348.846 336.404L348.111 337.531L293.732 361.095ZM294.051 134.074L294.467 358.106L346.397 335.62L345.98 111.588L294.051 134.074Z" fill="#E6C744"/>
<path d="M231.491 336.575L293.243 359.968L292.827 133.266L231.075 109.873L231.491 336.575Z" fill="#F4F6F5"/>
<path d="M292.826 361.119L231.074 337.726L230.29 336.575L229.849 109.873L231.515 108.721L293.267 132.114L294.051 133.265L294.492 359.968L292.826 361.119ZM232.715 335.717L292.018 358.179L291.601 134.098L232.299 111.636L232.715 335.717Z" fill="#E6C744"/>
<path d="M231.074 110.069L292.826 133.462L347.205 109.702L285.453 86.3088L231.074 110.069Z" fill="#F4F6F5"/>
<path d="M292.384 134.589L230.632 111.196L230.583 108.918L284.987 85.1577H285.917L347.67 108.526L347.719 110.804L293.315 134.564H292.384V134.589ZM234.306 109.971L292.776 132.115L343.971 109.775L285.501 87.6317L234.306 109.971Z" fill="#E6C744"/>
<path d="M198.372 420.739L232.028 403.005L231.514 131.403L197.857 149.138L198.372 420.739Z" fill="#F4F6F5"/>
<path d="M198.935 421.818L197.147 420.74L196.632 149.138L197.294 148.06L230.95 130.326L232.738 131.404L233.253 403.005L232.591 404.083L198.935 421.818ZM199.082 149.873L199.596 418.707L230.803 402.246L230.289 133.412L199.082 149.873Z" fill="#E6C744"/>
<path d="M124.398 392.717L198.373 420.74L197.859 149.138L123.859 121.116L124.398 392.717Z" fill="#F4F6F5"/>
<path d="M197.931 421.891L123.956 393.868L123.172 392.717L122.658 121.116L124.323 119.964L198.299 147.987L199.082 149.138L199.597 420.74L197.931 421.891ZM125.622 391.86L197.147 418.951L196.633 149.971L125.107 122.879L125.622 391.86Z" fill="#E6C744"/>
<path d="M123.855 121.336L197.855 149.359L231.536 131.404L157.561 103.357L123.855 121.336Z" fill="#F4F6F5"/>
<path d="M197.416 150.51L123.44 122.487L123.293 120.258L156.974 102.279L157.979 102.206L231.954 130.228L232.101 132.457L198.42 150.436L197.416 150.51ZM126.821 121.14L197.759 148.011L228.573 131.575L157.636 104.704L126.821 121.14Z" fill="#E6C744"/>
<path d="M322.903 509.558L388.183 475.339L388.256 270.927L322.977 305.147L322.903 509.558Z" fill="#F4F6F5"/>
<path d="M323.466 510.661L321.678 509.583L321.751 305.172L322.413 304.094L387.717 269.874L389.505 270.952L389.431 475.364L388.77 476.441L323.466 510.661ZM324.201 305.907L324.127 507.55L386.982 474.604L387.055 272.961L324.201 305.907Z" fill="#E6C744"/>
<path d="M293.485 498.316L322.904 509.559L322.978 305.147L293.534 293.904L293.485 498.316Z" fill="#F4F6F5"/>
<path d="M322.462 510.71L293.044 499.467L292.26 498.316L292.333 293.904L293.999 292.753L323.418 303.996L324.201 305.147L324.128 509.559L322.462 510.71ZM294.709 497.483L321.678 507.795L321.752 306.005L294.783 295.692L294.709 497.483Z" fill="#E6C744"/>
<path d="M293.535 294.345L322.978 305.588L388.307 270.928L358.888 259.684L293.535 294.345Z" fill="#F4F6F5"/>
<path d="M322.537 306.74L293.118 295.496L292.971 293.267L358.324 258.582L359.328 258.509L388.747 269.752L388.894 271.981L323.541 306.666L322.537 306.74ZM296.498 294.174L322.88 304.266L385.342 271.099L358.961 261.007L296.498 294.174Z" fill="#E6C744"/>
<path d="M416.969 629.561L450.625 611.826L450.111 340.225L416.43 357.959L416.969 629.561Z" fill="#F4F6F5"/>
<path d="M417.532 630.639L415.743 629.561L415.229 357.959L415.89 356.882L449.547 339.147L451.335 340.225L451.849 611.826L451.188 612.904L417.532 630.639ZM417.679 358.694L418.193 627.528L449.4 611.067L448.885 342.234L417.679 358.67V358.694Z" fill="#E6C744"/>
<path d="M389.263 619.273L416.967 629.561L416.428 357.96L388.724 347.672L389.263 619.273Z" fill="#F4F6F5"/>
<path d="M416.526 630.712L388.822 620.424L388.013 619.273L387.499 347.672L389.14 346.52L416.844 356.808L417.652 357.96L418.167 629.561L416.526 630.712ZM390.463 618.416L415.717 627.797L415.203 358.817L389.949 349.435L390.463 618.416Z" fill="#E6C744"/>
<path d="M388.725 347.892L416.429 358.204L450.134 340.225L422.43 329.937L388.725 347.892Z" fill="#F4F6F5"/>
<path d="M416.012 359.331L388.308 349.043L388.161 346.814L421.841 328.835L422.846 328.761L450.55 339.049L450.697 341.278L417.016 359.258L416.012 359.331ZM391.712 347.696L416.355 356.857L447.145 340.421L422.503 331.26L391.712 347.696Z" fill="#E6C744"/>
<path d="M198.299 615.304L231.98 597.546L231.441 325.969L197.785 343.703L198.299 615.304Z" fill="#F4F6F5"/>
<path d="M198.886 616.382L197.097 615.305L196.583 343.703L197.244 342.625L230.901 324.891L232.689 325.969L233.203 597.57L232.542 598.648L198.886 616.382ZM199.008 344.438L199.522 613.272L230.729 596.811L230.215 327.977L199.008 344.438Z" fill="#E6C744"/>
<path d="M170.594 605.017L198.298 615.305L197.784 343.703L170.08 333.415L170.594 605.017Z" fill="#F4F6F5"/>
<path d="M197.882 616.456L170.178 606.168L169.369 605.016L168.855 333.415L170.496 332.264L198.2 342.552L199.008 343.703L199.523 615.304L197.882 616.456ZM171.819 604.159L197.073 613.541L196.559 344.56L171.304 335.179L171.819 604.159Z" fill="#E6C744"/>
<path d="M170.079 333.635L197.783 343.923L231.464 325.944L203.76 315.656L170.079 333.635Z" fill="#F4F6F5"/>
<path d="M197.366 345.075L169.662 334.787L169.515 332.558L203.196 314.579L204.2 314.505L231.904 324.793L232.051 327.022L198.37 345.001L197.366 345.075ZM173.067 333.44L197.709 342.601L228.499 326.165L203.857 317.004L173.067 333.44Z" fill="#E6C744"/>
<path d="M29.9687 649.377L63.6249 631.618L63.1104 360.041L29.4297 377.775L29.9687 649.377Z" fill="#F4F6F5"/>
<path d="M30.5315 650.455L28.7435 649.377L28.229 377.776L28.8904 376.698L62.5466 358.963L64.3347 360.041L64.8492 631.643L64.1878 632.721L30.5315 650.455ZM30.6785 378.51L31.193 647.344L62.3997 630.908L61.8852 362.074L30.6785 378.535V378.51Z" fill="#E6C744"/>
<path d="M2.26456 639.065L29.9685 649.378L29.4295 377.776L1.72559 367.488L2.26456 639.065Z" fill="#F4F6F5"/>
<path d="M29.5263 650.504L1.82234 640.216L1.01396 639.065L0.499512 367.463L2.14064 366.312L29.8447 376.6L30.653 377.751L31.1674 649.353L29.5263 650.504ZM3.46347 638.232L28.7179 647.614L28.2035 378.633L2.94902 369.251L3.46347 638.232Z" fill="#E6C744"/>
<path d="M1.72559 367.708L29.4295 377.996L63.1348 360.017L35.4063 349.729L1.72559 367.708Z" fill="#F4F6F5"/>
<path d="M29.0116 379.148L1.30761 368.86L1.16064 366.631L34.8414 348.651L35.8456 348.578L63.5496 358.866L63.6965 361.095L30.0158 379.074L29.0116 379.148ZM4.71246 367.512L29.3545 376.674L60.1449 360.237L35.5028 351.076L4.71246 367.512Z" fill="#E6C744"/>
<path d="M138.212 569.4L171.868 551.665L171.353 280.064L137.697 297.798L138.212 569.4Z" fill="#F4F6F5"/>
<path d="M138.775 570.478L136.987 569.4L136.472 297.799L137.134 296.721L170.79 278.986L172.578 280.064L173.092 551.666L172.431 552.743L138.775 570.478ZM138.922 298.558L139.436 567.392L170.643 550.955L170.128 282.122L138.922 298.582V298.558Z" fill="#E6C744"/>
<path d="M64.2356 541.378L138.211 569.4L137.696 297.799L63.7212 269.776L64.2356 541.378Z" fill="#F4F6F5"/>
<path d="M137.77 570.551L63.7944 542.529L63.0105 541.378L62.4961 269.776L64.1617 268.625L138.137 296.647L138.921 297.799L139.435 569.4L137.77 570.551ZM65.4601 540.52L136.986 567.612L136.471 298.631L64.9456 271.54L65.4601 540.52Z" fill="#E6C744"/>
<path d="M63.7207 269.997L137.696 298.044L171.377 280.064L97.4015 252.042L63.7207 269.997Z" fill="#F4F6F5"/>
<path d="M137.254 299.195L63.2788 271.173L63.1318 268.943L96.8126 250.964L97.817 250.891L171.792 278.913L171.939 281.142L138.258 299.121L137.254 299.195ZM66.6591 269.825L137.597 296.696L168.412 280.26L97.474 253.389L66.6591 269.825Z" fill="#E6C744"/>
<path d="M214.418 70.8606L248.099 53.1262L247.486 11.7295L213.83 29.4884L214.418 70.8606Z" fill="#F4F6F5"/>
<path d="M215.004 71.9631L213.216 70.8853L212.628 29.4886L213.29 28.3863L246.946 10.6519L248.734 11.7296L249.322 53.1264L248.661 54.2286L215.004 71.9631ZM215.078 30.1989L215.641 68.8522L246.873 52.3915L246.309 13.7382L215.078 30.1989Z" fill="#E6C744"/>
<path d="M186.713 60.5727L214.417 70.8607L213.829 29.4884L186.125 19.176L186.713 60.5727Z" fill="#F4F6F5"/>
<path d="M214 72.0123L186.296 61.7244L185.488 60.5976L184.9 19.2009L186.541 18.0251L214.245 28.3131L215.053 29.4399L215.641 70.8366L214 72.0123ZM187.937 59.7158L213.167 69.0974L212.604 30.3217L187.374 20.9401L187.937 59.7158Z" fill="#E6C744"/>
<path d="M186.125 19.421L213.829 29.709L247.51 11.7296L219.806 1.44165L186.125 19.421Z" fill="#F4F6F5"/>
<path d="M213.412 30.8604L185.708 20.5725L185.561 18.3434L219.242 0.36401L220.246 0.290527L247.95 10.5785L248.097 12.8075L214.416 30.7869L213.412 30.8604ZM189.113 19.2252L213.755 28.3864L244.545 11.9502L219.903 2.789L189.113 19.2252Z" fill="#E6C744"/>
<path d="M197.824 417.483L231.48 399.79L230.966 128.826L197.31 146.519L197.824 417.483Z" fill="#F4F6F5"/>
<path d="M198.388 418.559L196.6 417.483L196.085 146.519L196.747 145.444L230.403 127.751L232.191 128.826L232.706 399.79L232.044 400.866L198.388 418.559ZM198.535 147.252L199.049 415.455L230.256 399.033L229.742 130.83L198.535 147.252Z" fill="#E6C744"/>
<path d="M123.85 389.527L197.826 417.483L197.311 146.519L123.312 118.563L123.85 389.527Z" fill="#F4F6F5"/>
<path d="M197.384 418.632L123.409 390.675L122.625 389.527L122.11 118.563L123.776 117.414L197.751 145.371L198.535 146.519L199.05 417.483L197.384 418.632ZM125.074 388.671L196.6 415.699L196.086 147.35L124.56 120.322L125.074 388.671Z" fill="#E6C744"/>
<path d="M123.308 118.782L197.308 146.739L230.989 128.826L157.013 100.845L123.308 118.782Z" fill="#F4F6F5"/>
<path d="M196.868 147.888L122.893 119.931L122.746 117.708L156.427 99.7703L157.431 99.697L231.406 127.654L231.553 129.877L197.872 147.815L196.868 147.888ZM126.273 118.587L197.211 145.395L228.026 128.998L157.088 102.19L126.273 118.587Z" fill="#E6C744"/>
<path d="M89.813 318.28L123.469 300.587L122.881 259.288L89.2251 276.98L89.813 318.28Z" fill="#F4F6F5"/>
<path d="M90.3761 319.356L88.5879 318.281L88 276.981L88.6614 275.881L122.318 258.188L124.106 259.264L124.694 300.563L124.032 301.663L90.3761 319.356ZM90.4495 277.714L91.0128 316.277L122.244 299.855L121.681 261.292L90.4495 277.714Z" fill="#E6C744"/>
<path d="M62.1103 308.017L89.8143 318.28L89.2264 276.981L61.5225 266.717L62.1103 308.017Z" fill="#F4F6F5"/>
<path d="M89.3966 319.429L61.6926 309.166L60.8842 308.041L60.2964 266.742L61.9375 265.569L89.6415 275.833L90.4498 276.957L91.0377 318.256L89.3966 319.429ZM63.3338 307.162L88.5637 316.521L88.0003 277.837L62.7704 268.477L63.3338 307.162Z" fill="#E6C744"/>
<path d="M61.5249 266.937L89.2288 277.225L122.91 259.288L95.2057 249.024L61.5249 266.937Z" fill="#F4F6F5"/>
<path d="M88.8114 278.349L61.1074 268.086L60.9604 265.862L94.6412 247.925L95.6454 247.851L123.349 258.115L123.496 260.339L89.8156 278.276L88.8114 278.349ZM64.4877 266.742L89.1298 275.881L119.92 259.484L95.2781 250.344L64.4877 266.742Z" fill="#E6C744"/>
<path d="M135.749 462.211L169.406 444.493L168.891 173.554L135.21 191.247L135.749 462.211Z" fill="#F4F6F5"/>
<path d="M136.312 463.286L134.524 462.211L134.009 191.247L134.671 190.171L168.327 172.479L170.115 173.554L170.629 444.518L169.968 445.593L136.312 463.286ZM136.459 191.98L136.973 460.182L168.18 443.785L167.666 175.582L136.459 192.004V191.98Z" fill="#E6C744"/>
<path d="M108.044 451.923L135.748 462.211L135.209 191.247L107.505 180.983L108.044 451.923Z" fill="#F4F6F5"/>
<path d="M135.307 463.335L107.603 453.071L106.795 451.923L106.28 180.959L107.921 179.81L135.625 190.074L136.434 191.222L136.948 462.186L135.307 463.335ZM109.244 451.092L134.499 460.451L133.984 192.102L108.73 182.743L109.244 451.092Z" fill="#E6C744"/>
<path d="M107.505 181.203L135.209 191.467L168.915 173.53L141.186 163.266L107.505 181.203Z" fill="#F4F6F5"/>
<path d="M134.791 192.616L107.087 182.352L106.94 180.128L140.621 162.191L141.625 162.117L169.329 172.381L169.476 174.605L135.796 192.542L134.791 192.616ZM110.492 181.008L135.134 190.147L165.925 173.75L141.283 164.61L110.492 181.008Z" fill="#E6C744"/>
<path d="M322.363 507.336L387.643 473.197L387.716 269.265L322.437 303.405L322.363 507.336Z" fill="#F4F6F5"/>
<path d="M322.927 508.437L321.139 507.361L321.212 303.43L321.873 302.355L387.177 268.215L388.966 269.291L388.892 473.222L388.231 474.297L322.927 508.437ZM323.662 304.163L323.588 505.333L386.443 472.465L386.516 271.294L323.662 304.163Z" fill="#E6C744"/>
<path d="M292.946 496.12L322.364 507.337L322.438 303.406L292.995 292.189L292.946 496.12Z" fill="#F4F6F5"/>
<path d="M321.923 508.486L292.504 497.269L291.72 496.12L291.794 292.189L293.459 291.04L322.878 302.257L323.662 303.405L323.588 507.337L321.923 508.486ZM294.17 495.289L321.139 505.578L321.212 304.261L294.243 293.973L294.17 495.289Z" fill="#E6C744"/>
<path d="M292.996 292.628L322.439 303.845L387.768 269.266L358.349 258.049L292.996 292.628Z" fill="#F4F6F5"/>
<path d="M321.997 304.994L292.579 293.777L292.432 291.553L357.785 256.95L358.789 256.876L388.207 268.093L388.354 270.317L323.001 304.921L321.997 304.994ZM295.959 292.457L322.34 302.526L384.803 269.437L358.421 259.369L295.959 292.457Z" fill="#E6C744"/>
<path d="M259.446 500.775L293.102 483.041L292.588 211.439L258.931 229.198L259.446 500.775Z" fill="#F4F6F5"/>
<path d="M260.032 501.878L258.243 500.8L257.729 229.198L258.39 228.121L292.047 210.386L293.835 211.464L294.349 483.066L293.688 484.143L260.032 501.878ZM260.154 229.933L260.668 498.767L291.875 482.306L291.361 213.473L260.154 229.933Z" fill="#E6C744"/>
<path d="M231.74 490.487L259.444 500.775L258.93 229.198L231.226 218.91L231.74 490.487Z" fill="#F4F6F5"/>
<path d="M259.027 501.927L231.323 491.639L230.514 490.488L230 218.886L231.641 217.735L259.345 228.023L260.153 229.174L260.668 500.776L259.027 501.927ZM232.964 489.655L258.218 499.036L257.704 230.056L232.45 220.674L232.964 489.655Z" fill="#E6C744"/>
<path d="M231.225 219.131L258.929 229.419L292.609 211.439L264.905 201.151L231.225 219.131Z" fill="#F4F6F5"/>
<path d="M258.512 230.57L230.808 220.282L230.661 218.053L264.341 200.073L265.346 200L293.05 210.288L293.197 212.517L259.516 230.496L258.512 230.57ZM234.212 218.935L258.855 228.096L289.645 211.66L265.003 202.498L234.212 218.935Z" fill="#E6C744"/>
</svg>
