<svg width="132" height="338" viewBox="0 0 132 338" fill="none" xmlns="http://www.w3.org/2000/svg">
<path d="M105.275 175.33L130.788 165.377L130.581 69.6172L105.08 79.5708L105.275 175.33Z" fill="#F4F6F5"/>
<path d="M105.505 175.806L104.701 175.33L104.494 79.5709L104.839 79.095L130.351 69.1414L131.156 69.6173L131.363 165.377L131.018 165.853L105.505 175.806ZM105.655 79.9124L105.85 174.544L130.214 165.046L130.018 70.414L105.655 79.9124Z" fill="#E6C744"/>
<path d="M76.3047 165.449L105.276 175.33L105.081 79.5706L76.1094 69.6895L76.3047 165.449Z" fill="#F4F6F5"/>
<path d="M105.08 175.816L76.1088 165.935L75.741 165.449L75.5342 69.6894L76.3156 69.2031L105.287 79.0843L105.655 79.5706L105.862 175.33L105.08 175.816ZM76.8787 165.087L104.701 174.575L104.506 79.9224L76.6834 70.4344L76.8787 165.087Z" fill="#E6C744"/>
<path d="M76.1084 69.7724L105.08 79.6536L130.593 69.6173L101.621 59.7361L76.1084 69.7724Z" fill="#F4F6F5"/>
<path d="M104.873 80.1296L75.9009 70.2484L75.8779 69.2861L101.402 59.2498H101.839L130.81 69.1206L130.833 70.0828L105.309 80.1192H104.873V80.1296ZM77.6248 69.7311L105.056 79.0845L129.075 69.6483L101.643 60.2948L77.6248 69.7311Z" fill="#E6C744"/>
<path d="M101.878 29.8087L117.68 22.3176L117.393 4.83154L101.603 12.3329L101.878 29.8087Z" fill="#F4F6F5"/>
<path d="M102.154 30.2745L101.315 29.8192L101.039 12.3331L101.349 11.8675L117.139 4.37646L117.978 4.83173L118.254 22.3178L117.944 22.7834L102.154 30.2745ZM102.188 12.6332L102.453 28.9604L117.105 22.0074L116.841 5.68015L102.188 12.6332Z" fill="#E6C744"/>
<path d="M88.8793 25.4631L101.877 29.8088L101.601 12.333L88.6035 7.97705L88.8793 25.4631Z" fill="#F4F6F5"/>
<path d="M101.682 30.2955L88.6844 25.9499L88.3051 25.4739L88.0293 7.98787L88.7992 7.49121L101.797 11.8369L102.176 12.3128L102.452 29.7989L101.682 30.2955ZM89.4543 25.1015L101.291 29.0643L101.027 12.6853L89.19 8.72248L89.4543 25.1015Z" fill="#E6C744"/>
<path d="M88.6035 8.08086L101.601 12.4265L117.403 4.83197L104.405 0.486328L88.6035 8.08086Z" fill="#F4F6F5"/>
<path d="M101.406 12.9128L88.4088 8.56714L88.3398 7.62558L104.142 0.0310391L104.613 0L117.61 4.34565L117.679 5.28721L101.878 12.8817L101.406 12.9128ZM90.0062 7.99805L101.567 11.8678L116.013 4.92507L104.452 1.05536L90.0062 7.99805Z" fill="#E6C744"/>
<path d="M93.4337 252.743L109.224 245.252L108.983 130.527L93.1924 138.029L93.4337 252.743Z" fill="#F4F6F5"/>
<path d="M93.7082 253.209L92.8693 252.754L92.6279 138.029L92.9382 137.573L108.728 130.082L109.567 130.538L109.809 245.263L109.498 245.718L93.7082 253.209ZM93.7656 138.339L94.007 251.895L108.648 244.942L108.407 131.386L93.7656 138.339Z" fill="#E6C744"/>
<path d="M80.4337 248.398L93.4313 252.743L93.19 138.028L80.1924 133.683L80.4337 248.398Z" fill="#F4F6F5"/>
<path d="M93.2354 253.23L80.2378 248.884L79.8585 248.398L79.6172 133.673L80.3872 133.186L93.3848 137.532L93.764 138.018L94.0053 252.743L93.2354 253.23ZM81.0078 248.046L92.8561 252.009L92.6148 138.391L80.7664 134.428L81.0078 248.046Z" fill="#E6C744"/>
<path d="M80.1914 133.776L93.189 138.122L108.991 130.527L95.9931 126.181L80.1914 133.776Z" fill="#F4F6F5"/>
<path d="M92.9933 138.608L79.9957 134.262L79.9268 133.321L95.7284 125.726L96.1996 125.695L109.197 130.041L109.266 130.982L93.4645 138.577L92.9933 138.608ZM81.5931 133.693L93.1542 137.563L107.6 130.62L96.0387 126.75L81.5931 133.693Z" fill="#E6C744"/>
<path d="M93.376 336.795L124.002 322.374L124.037 236.233L93.4105 250.653L93.376 336.795Z" fill="#F4F6F5"/>
<path d="M93.6407 337.26L92.8018 336.805L92.8363 250.664L93.1465 250.21L123.785 235.79L124.623 236.244L124.589 322.385L124.279 322.839L93.6407 337.26ZM93.9855 250.974L93.951 335.949L123.44 322.065L123.474 237.09L93.9855 250.974Z" fill="#E6C744"/>
<path d="M79.5752 332.057L93.3772 336.795L93.4117 250.654L79.5982 245.916L79.5752 332.057Z" fill="#F4F6F5"/>
<path d="M93.1698 337.28L79.3678 332.542L79 332.057L79.0345 245.916L79.816 245.431L93.618 250.169L93.9858 250.654L93.9513 336.795L93.1698 337.28ZM80.1492 331.706L92.802 336.052L92.8366 251.015L80.1837 246.67L80.1492 331.706Z" fill="#E6C744"/>
<path d="M79.5967 246.102L93.4102 250.84L124.06 236.233L110.258 231.495L79.5967 246.102Z" fill="#F4F6F5"/>
<path d="M93.204 251.325L79.402 246.587L79.333 245.648L109.994 231.031L110.465 231L124.267 235.738L124.336 236.677L93.6751 251.294L93.204 251.325ZM80.9879 246.03L93.3648 250.282L122.67 236.306L110.293 232.053L80.9879 246.03Z" fill="#E6C744"/>
<path d="M64.5216 217.56L80.3118 210.087L80.0704 95.6311L64.2803 103.105L64.5216 217.56Z" fill="#F4F6F5"/>
<path d="M64.7863 218.015L63.9474 217.561L63.7061 103.105L64.0164 102.65L79.8065 95.177L80.6454 95.6312L80.8868 210.087L80.5765 210.541L64.7863 218.015ZM64.8553 103.414L65.0966 216.704L79.7376 209.767L79.4962 96.4776L64.8553 103.414Z" fill="#E6C744"/>
<path d="M29.8163 205.751L64.5225 217.56L64.2812 103.105L29.5635 91.2957L29.8163 205.751Z" fill="#F4F6F5"/>
<path d="M64.3153 218.046L29.6091 206.237L29.2414 205.752L29 91.2957L29.7815 90.8105L64.4877 102.619L64.8554 103.105L65.0968 217.56L64.3153 218.046ZM30.3906 205.39L63.9476 216.807L63.7062 103.456L30.1492 92.0389L30.3906 205.39Z" fill="#E6C744"/>
<path d="M29.5615 91.3887L64.2792 103.198L80.0809 95.6313L45.3747 83.812L29.5615 91.3887Z" fill="#F4F6F5"/>
<path d="M64.073 103.683L29.3668 91.8739L29.2979 90.9346L45.0995 83.3579L45.5707 83.3269L80.2769 95.1358L80.3458 96.0752L64.5442 103.652L64.073 103.683ZM30.9527 91.3062L64.2339 102.63L78.6909 95.7036L45.4098 84.3798L30.9527 91.3062Z" fill="#E6C744"/>
<path d="M13.8481 175.657L29.6382 168.183L29.3624 150.738L13.5723 158.212L13.8481 175.657Z" fill="#F4F6F5"/>
<path d="M14.1128 176.111L13.2738 175.657L12.998 158.212L13.3084 157.747L29.0985 150.274L29.9374 150.728L30.2132 168.173L29.903 168.637L14.1128 176.111ZM14.1473 158.521L14.4116 174.81L29.064 167.874L28.7997 151.585L14.1473 158.521Z" fill="#E6C744"/>
<path d="M0.850995 171.321L13.8486 175.657L13.5728 158.212L0.575195 153.876L0.850995 171.321Z" fill="#F4F6F5"/>
<path d="M13.6526 176.142L0.655059 171.807L0.2758 171.332L0 153.887L0.769952 153.391L13.7675 157.727L14.1468 158.202L14.4226 175.647L13.6526 176.142ZM1.42501 170.96L13.2619 174.914L12.9976 158.573L1.16071 154.62L1.42501 170.96Z" fill="#E6C744"/>
<path d="M0.576172 153.969L13.5738 158.315L29.3754 150.739L16.3778 146.403L0.576172 153.969Z" fill="#F4F6F5"/>
<path d="M13.3781 158.79L0.380473 154.454L0.311523 153.515L16.1132 145.938L16.5843 145.907L29.5819 150.243L29.6509 151.182L13.8492 158.759L13.3781 158.79ZM1.96639 153.887L13.5275 157.747L27.9731 150.821L16.412 146.96L1.96639 153.887Z" fill="#E6C744"/>
<path d="M35.3984 230.76L51.1885 223.277L50.9472 108.831L35.1455 116.305L35.3984 230.76Z" fill="#F4F6F5"/>
<path d="M35.6623 231.214L34.8234 230.76L34.582 116.304L34.8923 115.85L50.6825 108.377L51.5214 108.831L51.7628 223.287L51.4524 223.741L35.6623 231.214ZM35.7312 116.614L35.9726 229.903L50.6135 222.977L50.3722 109.688L35.7312 116.624V116.614Z" fill="#E6C744"/>
<path d="M22.4023 226.414L35.3999 230.76L35.147 116.304L22.1494 111.969L22.4023 226.414Z" fill="#F4F6F5"/>
<path d="M35.1924 231.235L22.1948 226.9L21.8156 226.414L21.5742 111.959L22.3442 111.473L35.3418 115.809L35.721 116.294L35.9624 230.75L35.1924 231.235ZM22.9648 226.063L34.8132 230.017L34.5718 116.666L22.7234 112.712L22.9648 226.063Z" fill="#E6C744"/>
<path d="M22.1475 112.062L35.145 116.397L50.9582 108.821L37.9491 104.485L22.1475 112.062Z" fill="#F4F6F5"/>
<path d="M34.9493 116.882L21.9518 112.547L21.8828 111.608L37.6845 104.031L38.1556 104L51.1532 108.335L51.2221 109.275L35.4205 116.852L34.9493 116.882ZM23.5492 111.979L35.1102 115.84L49.5558 108.914L37.9948 105.053L23.5492 111.979Z" fill="#E6C744"/>
</svg>
