<svg width="36" height="36" viewBox="0 0 36 36" fill="none" xmlns="http://www.w3.org/2000/svg">
<rect width="35.1074" height="35.1074" rx="10.1271" fill="#525146"/>
<path d="M14.0931 14.4902V23.0508H11.8066V14.4902H14.0931ZM11.6641 12.259C11.6641 11.9267 11.7802 11.6525 12.0123 11.4362C12.2443 11.22 12.5555 11.1118 12.9459 11.1118C13.3309 11.1118 13.6395 11.22 13.8715 11.4362C14.1089 11.6525 14.2276 11.9267 14.2276 12.259C14.2276 12.5913 14.1089 12.8656 13.8715 13.0819C13.6395 13.2981 13.3309 13.4063 12.9459 13.4063C12.5555 13.4063 12.2443 13.2981 12.0123 13.0819C11.7802 12.8656 11.6641 12.5913 11.6641 12.259ZM18.5313 16.3178V23.0508H16.2527V14.4902H18.3889L18.5313 16.3178ZM18.199 18.4698H17.5819C17.5819 17.8369 17.6636 17.2672 17.8271 16.7609C17.9907 16.2492 18.2201 15.8141 18.5155 15.4554C18.8108 15.0915 19.1616 14.8146 19.5677 14.6247C19.9792 14.4295 20.438 14.3319 20.9444 14.3319C21.3453 14.3319 21.7119 14.39 22.0442 14.506C22.3764 14.622 22.6613 14.8067 22.8986 15.0598C23.1413 15.313 23.3259 15.6479 23.4525 16.0646C23.5843 16.4813 23.6503 16.9903 23.6503 17.5916V23.0508H21.3558V17.5837C21.3558 17.2039 21.3031 16.9086 21.1976 16.6976C21.0921 16.4866 20.9365 16.3389 20.7308 16.2545C20.5304 16.1649 20.2824 16.12 19.9871 16.12C19.6812 16.12 19.4148 16.1807 19.188 16.302C18.9664 16.4233 18.7818 16.5921 18.6342 16.8083C18.4917 17.0193 18.3836 17.2672 18.3098 17.5521C18.2359 17.8369 18.199 18.1428 18.199 18.4698Z" fill="black"/>
</svg>
